#!OML:ASF E:\emotionWalksFemale\Project 1\Capture day 1\Session 1\Female1.ASF
:FULLY-SPECIFIED
:DEGREES
631
root 8.93867 15.3083 17.2594 175.013 5.77357 -180.41
lowerback 5.9591 -2.00217 0.523999
upperback -3.78681 -2.51887 0.783016
thorax -7.29576 -1.21428 0.829911
lowerneck -6.61286 2.31759 -0.956761
upperneck 14.1339 3.40441 1.53927
head 5.29725 1.86852 0.870172
rclavicle 1.65985e-014 8.74653e-015
rhumerus -42.7835 6.83099 -86.8185
rradius 40.1594
rwrist 13.107
rhand -5.24747 -53.8844
rfingers 7.12502
rthumb 20.5556 -442.816
lclavicle 1.65985e-014 8.74653e-015
lhumerus -41.8636 8.394 78.259
lradius 43.3233
lwrist -2.73502
lhand -7.57136 -32.4437
lfingers 7.12502
lthumb 18.3212 -3.2865
rfemur -6.81041 19.009 31.4208
rtibia 25.9746
rfoot -9.83351 -25.4289
rtoes 9.93978
lfemur -11.6699 1.10301 -19.7466
ltibia 54.7977
lfoot -22.1375 0.069108
ltoes -36.9267
632
root 8.93941 15.3023 17.2007 174.965 6.13132 -180.395
lowerback 5.90143 -1.98015 0.546572
upperback -3.75722 -2.48733 0.801856
thorax -7.2311 -1.20003 0.830091
lowerneck -6.56625 2.38946 -0.871629
upperneck 14.226 3.51434 1.43594
head 5.32006 1.92272 0.831894
rclavicle -2.3059e-014 5.96354e-015
rhumerus -42.5084 7.164 -87.0836
rradius 40.1272
rwrist 12.941
rhand -4.92185 -53.9589
rfingers 7.12502
rthumb 20.8685 -442.857
lclavicle -2.3059e-014 5.96354e-015
lhumerus -41.8663 8.20746 78.4487
lradius 43.5077
lwrist -2.81384
lhand -7.49664 -32.7146
lfingers 7.12502
lthumb 18.3931 -3.56423
rfemur -6.67059 18.9741 31.5363
rtibia 26.2971
rfoot -9.90946 -25.3423
rtoes 7.98683
lfemur -11.9866 0.916972 -19.705
ltibia 53.979
lfoot -22.7012 0.100928
ltoes -37.2163
633
root 8.93916 15.2956 17.1501 174.914 6.26129 -180.36
lowerback 6.16212 -2.00778 0.510651
upperback -3.88105 -2.5157 0.869892
thorax -7.50992 -1.20672 0.938632
lowerneck -6.34201 2.49434 -0.854231
upperneck 14.2675 3.67132 1.40185
head 5.29389 2.00326 0.825513
rclavicle 3.35946e-014 1.66979e-014
rhumerus -42.427 7.48572 -87.2363
rradius 39.9637
rwrist 12.642
rhand -5.59187 -53.1405
rfingers 7.12502
rthumb 20.2246 -442.108
lclavicle 3.35946e-014 1.66979e-014
lhumerus -42.0311 8.16999 78.6284
lradius 43.3597
lwrist -3.30884
lhand -7.45967 -33.2144
lfingers 7.12502
lthumb 18.4287 -4.06736
rfemur -6.45749 19.0462 31.6733
rtibia 26.5743
rfoot -10.6596 -25.3825
rtoes 8.51153
lfemur -12.3041 0.562111 -19.6598
ltibia 53.1583
lfoot -23.0242 0.511117
ltoes -38.8811
634
root 8.9391 15.2913 17.1018 174.91 6.3451 -180.33
lowerback 6.39852 -2.05645 0.504553
upperback -4.0415 -2.56665 0.943407
thorax -7.81558 -1.22434 1.03975
lowerneck -6.1149 2.56803 -0.905516
upperneck 14.4016 3.79828 1.38934
head 5.29465 2.06988 0.836439
rclavicle 1.39149e-014 1.98785e-015
rhumerus -42.4104 7.83616 -87.3608
rradius 39.7232
rwrist 12.3391
rhand -6.64005 -52.2839
rfingers 7.12502
rthumb 19.217 -441.354
lclavicle 1.39149e-014 1.98785e-015
lhumerus -42.222 8.20693 78.7719
lradius 43.1642
lwrist -3.84027
lhand -7.37566 -33.2461
lfingers 7.12502
lthumb 18.5095 -4.10675
rfemur -6.30508 18.957 31.7697
rtibia 26.8038
rfoot -11.3157 -25.2619
rtoes 8.98427
lfemur -12.6607 0.0935479 -19.6376
ltibia 52.3576
lfoot -23.0574 0.954858
ltoes -38.3896
635
root 8.94218 15.2858 17.0488 174.858 6.64261 -180.294
lowerback 6.5093 -2.04803 0.435774
upperback -4.08975 -2.55008 1.05153
thorax -7.92415 -1.20716 1.19557
lowerneck -6.06723 2.62336 -0.904496
upperneck 14.6032 3.90524 1.28836
head 5.35018 2.12187 0.814213
rclavicle -2.40529e-014 -2.14687e-014
rhumerus -42.353 8.18895 -87.4441
rradius 39.7755
rwrist 13.0421
rhand -5.66032 -52.8666
rfingers 7.12502
rthumb 20.1589 -441.841
lclavicle -2.40529e-014 -2.14687e-014
lhumerus -42.3416 8.22491 79.0014
lradius 43.225
lwrist -4.14467
lhand -7.22696 -32.8755
lfingers 7.12502
lthumb 18.6525 -3.74982
rfemur -6.09706 18.9146 31.9067
rtibia 26.9862
rfoot -11.7439 -25.0916
rtoes 8.619
lfemur -12.9037 -0.240303 -19.5778
ltibia 51.5997
lfoot -23.1857 1.31707
ltoes -38.1446
636
root 8.94359 15.2799 17.0008 174.713 6.98026 -180.293
lowerback 6.85064 -2.04387 0.181493
upperback -4.14431 -2.55134 1.23846
thorax -8.16216 -1.18479 1.55089
lowerneck -6.06413 2.7514 -0.93011
upperneck 14.7887 4.11656 1.15553
head 5.40755 2.21981 0.793529
rclavicle -1.98785e-014 1.78906e-014
rhumerus -42.2315 8.43134 -87.3825
rradius 39.4345
rwrist 13.7596
rhand -5.83526 -52.0351
rfingers 7.12502
rthumb 19.9907 -441.027
lclavicle -1.98785e-014 1.78906e-014
lhumerus -42.5003 8.41734 79.3114
lradius 43.2642
lwrist -4.57103
lhand -7.22423 -32.9285
lfingers 7.12502
lthumb 18.6552 -3.80299
rfemur -5.74892 19.021 32.0518
rtibia 27.0929
rfoot -12.1564 -25.0549
rtoes 8.72379
lfemur -13.017 -0.491997 -19.5534
ltibia 50.895
lfoot -23.4516 1.63789
ltoes -39.4855
637
root 8.94226 15.2798 16.9562 174.657 7.25246 -180.298
lowerback 6.9096 -2.03717 0.133399
upperback -4.09467 -2.54678 1.27679
thorax -8.13923 -1.17998 1.6187
lowerneck -6.06027 2.82249 -0.763098
upperneck 14.814 4.23302 0.905117
head 5.42303 2.26919 0.696275
rclavicle -3.15074e-014 1.63003e-014
rhumerus -41.8704 8.40671 -87.4551
rradius 39.1007
rwrist 13.9773
rhand -6.26582 -51.0744
rfingers 7.12502
rthumb 19.5768 -440.109
lclavicle -3.15074e-014 1.63003e-014
lhumerus -42.4213 8.48412 79.4594
lradius 43.1429
lwrist -5.0893
lhand -7.26102 -32.8629
lfingers 7.12502
lthumb 18.6198 -3.73399
rfemur -5.50349 19.1119 32.1358
rtibia 27.1593
rfoot -12.5134 -25.0094
rtoes 9.18344
lfemur -13.1829 -0.782991 -19.5382
ltibia 50.2302
lfoot -23.6238 1.55466
ltoes -39.4017
638
root 8.94224 15.2779 16.9082 174.666 7.65207 -180.251
lowerback 6.68898 -1.98189 0.324999
upperback -3.97069 -2.46383 1.22079
thorax -7.88962 -1.15599 1.42826
lowerneck -6.06886 2.82979 -0.553713
upperneck 14.8291 4.24806 0.710099
head 5.43813 2.27439 0.602963
rclavicle -2.8128e-014 -2.22639e-014
rhumerus -41.6237 8.3973 -87.7117
rradius 39.1465
rwrist 13.8091
rhand -6.10078 -51.4143
rfingers 7.12502
rthumb 19.7355 -440.432
lclavicle -2.8128e-014 -2.22639e-014
lhumerus -42.3203 8.29434 79.5234
lradius 43.1455
lwrist -5.20969
lhand -7.11558 -32.5054
lfingers 7.12502
lthumb 18.7597 -3.38995
rfemur -5.3116 19.3077 32.2732
rtibia 27.2181
rfoot -12.837 -24.9589
rtoes 9.64641
lfemur -13.3481 -0.9685 -19.4438
ltibia 49.6186
lfoot -23.8796 1.36053
ltoes -38.8732
639
root 8.94097 15.2726 16.8608 174.604 8.06745 -180.323
lowerback 6.82835 -1.92732 0.376227
upperback -4.03027 -2.38579 1.18208
thorax -8.04035 -1.12004 1.35591
lowerneck -6.01388 2.88528 -0.548302
upperneck 14.9647 4.33305 0.733356
head 5.47002 2.32251 0.616021
rclavicle -8.34896e-015 -8.74653e-015
rhumerus -41.7743 8.40378 -87.8618
rradius 39.1498
rwrist 13.7595
rhand -6.34064 -51.391
rfingers 7.12502
rthumb 19.5049 -440.433
lclavicle -8.34896e-015 -8.74653e-015
lhumerus -42.484 8.18357 79.5984
lradius 43.0721
lwrist -5.28196
lhand -7.07838 -32.6269
lfingers 7.12502
lthumb 18.7954 -3.51494
rfemur -5.05761 19.4459 32.286
rtibia 27.2747
rfoot -13.1977 -24.8188
rtoes 10.1496
lfemur -13.4389 -1.12329 -19.506
ltibia 49.0691
lfoot -24.1778 1.30861
ltoes -39.26
640
root 8.93924 15.2704 16.8142 174.54 8.29168 -180.479
lowerback 6.45783 -1.91228 0.323478
upperback -3.80197 -2.39035 1.10732
thorax -7.57996 -1.12959 1.28625
lowerneck -6.04721 2.96303 -0.571099
upperneck 14.8251 4.41838 0.791609
head 5.42974 2.36171 0.64133
rclavicle 4.25399e-014 1.59028e-015
rhumerus -41.4017 8.48277 -88.0429
rradius 39.1569
rwrist 13.5278
rhand -6.58013 -52.5278
rfingers 7.12502
rthumb 19.2746 -441.593
lclavicle 4.25399e-014 1.59028e-015
lhumerus -42.0306 8.3117 79.7091
lradius 42.6595
lwrist -5.60556
lhand -7.28197 -32.8768
lfingers 7.12502
lthumb 18.5996 -3.74603
rfemur -4.81387 19.3931 32.1723
rtibia 27.3334
rfoot -13.6864 -24.5859
rtoes 10.6103
lfemur -13.5734 -1.3666 -19.6955
ltibia 48.6098
lfoot -24.3342 1.27339
ltoes -40.0454
641
root 8.93843 15.2691 16.7704 174.496 8.50386 -180.535
lowerback 6.26497 -1.92714 0.330654
upperback -3.68442 -2.4191 1.06703
thorax -7.34372 -1.14902 1.23272
lowerneck -6.0085 3.03627 -0.505383
upperneck 14.8285 4.51171 0.790345
head 5.42507 2.41112 0.635416
rclavicle -6.06293e-014 -7.95139e-016
rhumerus -41.1406 8.59795 -88.2386
rradius 39.142
rwrist 13.3778
rhand -6.21983 -53.1349
rfingers 7.12502
rthumb 19.621 -442.165
lclavicle -6.06293e-014 -7.95139e-016
lhumerus -41.8479 8.35079 79.8132
lradius 42.3863
lwrist -5.72222
lhand -7.28346 -33.0031
lfingers 7.12502
lthumb 18.5982 -3.87219
rfemur -4.59383 19.3561 32.168
rtibia 27.3753
rfoot -14.0397 -24.4214
rtoes 10.1955
lfemur -13.7074 -1.57167 -19.7684
ltibia 48.256
lfoot -24.4909 1.36558
ltoes -41.0965
642
root 8.9366 15.2675 16.7355 174.518 9.03604 -180.549
lowerback 6.2379 -1.81954 0.416309
upperback -3.64708 -2.27224 1.02298
thorax -7.29562 -1.08357 1.11843
lowerneck -5.95167 3.0964 -0.432929
upperneck 14.8365 4.58257 0.824594
head 5.4182 2.45293 0.637714
rclavicle -7.95139e-015 -5.1684e-015
rhumerus -40.8977 8.45995 -88.3868
rradius 39.0273
rwrist 13.4177
rhand -5.84111 -53.1721
rfingers 7.12502
rthumb 19.9851 -442.164
lclavicle -7.95139e-015 -5.1684e-015
lhumerus -41.6855 8.33904 79.8632
lradius 42.0336
lwrist -5.81307
lhand -7.11354 -33.1418
lfingers 7.12502
lthumb 18.7616 -4.02661
rfemur -4.50184 19.3543 32.1628
rtibia 27.3751
rfoot -14.0116 -24.0701
rtoes 8.53509
lfemur -13.876 -1.49661 -19.77
ltibia 48.009
lfoot -24.677 1.49368
ltoes -41.9746
643
root 8.9353 15.2697 16.7032 174.633 10.1082 -180.568
lowerback 6.09624 -1.50976 0.500789
upperback -3.57289 -1.85423 1.00903
thorax -7.14297 -0.884569 0.998565
lowerneck -5.97034 3.1284 -0.514366
upperneck 14.7593 4.60314 0.987376
head 5.3912 2.46661 0.701593
rclavicle 2.88238e-014 -9.54166e-015
rhumerus -40.4982 8.17615 -88.4375
rradius 38.7879
rwrist 13.4773
rhand -5.96068 -52.8583
rfingers 7.12502
rthumb 19.8702 -441.863
lclavicle 2.88238e-014 -9.54166e-015
lhumerus -41.338 8.47231 79.8887
lradius 41.5019
lwrist -5.98574
lhand -6.93312 -32.9229
lfingers 7.12502
lthumb 18.9351 -3.82451
rfemur -4.52696 19.4595 32.1038
rtibia 27.346
rfoot -13.9916 -23.2567
rtoes 7.68431
lfemur -14.0712 -0.919494 -19.7352
ltibia 47.8441
lfoot -24.8274 1.71183
ltoes -42.8215
